<svg xmlns="http://www.w3.org/2000/svg" width="130" height="28" viewBox="0 0 130 28"><defs><style>.a{fill:#f36a10;}.a,.b,.c{fill-rule:evenodd;}.b{fill:#fff;}.c{fill:#34754a;}</style></defs><g transform="translate(-11.217 -73.863)"><g transform="translate(11.217 73.863)"><path class="a" d="M-293.623-142.934a13.973,13.973,0,0,1,13.892,14,13.974,13.974,0,0,1-13.892,14,13.974,13.974,0,0,1-13.892-14,13.973,13.973,0,0,1,13.892-14Z" transform="translate(307.515 142.934)"/><path class="b" d="M-252.93-109.6a1.5,1.5,0,0,1,1.6,1.392,1.5,1.5,0,0,1-1.381,1.611,1.5,1.5,0,0,1-1.6-1.394,1.5,1.5,0,0,1,1.381-1.609Z" transform="translate(269.591 119.251)"/><path class="b" d="M-244.489-116.594a1.222,1.222,0,0,1,1.3,1.133,1.224,1.224,0,0,1-1.127,1.313,1.222,1.222,0,0,1-1.3-1.135,1.223,1.223,0,0,1,1.125-1.311Z" transform="translate(263.39 124.218)"/><path class="b" d="M-236.945-122.516a.944.944,0,0,1,1.005.877.946.946,0,0,1-.87,1.013.944.944,0,0,1-1.005-.877.947.947,0,0,1,.87-1.013Z" transform="translate(257.831 128.426)"/><path class="b" d="M-231.241-125.84a.556.556,0,0,1,.592.515.558.558,0,0,1-.513.6.555.555,0,0,1-.589-.515.557.557,0,0,1,.511-.6Z" transform="translate(253.508 130.787)"/><path class="b" d="M-226.872-128.284a.222.222,0,0,1,.235.206.224.224,0,0,1-.2.239.223.223,0,0,1-.235-.208.222.222,0,0,1,.2-.237Z" transform="translate(250.174 132.524)"/><path class="b" d="M-274.45-88.148a1.5,1.5,0,0,0,1.425,1.572,1.5,1.5,0,0,0,1.56-1.436,1.5,1.5,0,0,0-1.425-1.572,1.5,1.5,0,0,0-1.56,1.436Z" transform="translate(283.945 105.023)"/><path class="b" d="M-281.662-79.385A1.225,1.225,0,0,0-280.5-78.1a1.225,1.225,0,0,0,1.273-1.171,1.224,1.224,0,0,0-1.161-1.278,1.22,1.22,0,0,0-1.271,1.168Z" transform="translate(289.086 98.605)"/><path class="b" d="M-287.077-71.99a.946.946,0,0,0,.9.989.945.945,0,0,0,.983-.9.948.948,0,0,0-.9-.989.942.942,0,0,0-.981.9Z" transform="translate(292.946 93.162)"/><path class="b" d="M-290.584-66.052a.554.554,0,0,0,.526.581.555.555,0,0,0,.579-.53.557.557,0,0,0-.529-.581.552.552,0,0,0-.577.531Z" transform="translate(295.446 88.677)"/><path class="b" d="M-292.727-61.922a.224.224,0,0,0,.211.232.223.223,0,0,0,.231-.213.225.225,0,0,0-.211-.232.222.222,0,0,0-.231.213Z" transform="translate(296.974 85.515)"/><path class="b" d="M-262.466-118.6a1.271,1.271,0,0,1,1.353,1.179,1.273,1.273,0,0,1-1.17,1.366,1.272,1.272,0,0,1-1.353-1.181,1.274,1.274,0,0,1,1.17-1.364Z" transform="translate(276.239 125.645)"/><path class="b" d="M-253.293-125.584a.9.9,0,0,1,.957.833.9.9,0,0,1-.829.967.9.9,0,0,1-.955-.835.9.9,0,0,1,.827-.964Z" transform="translate(269.453 130.606)"/><path class="b" d="M-233.686-105.767a.9.9,0,0,1,.957.833.9.9,0,0,1-.829.966.9.9,0,0,1-.955-.835.9.9,0,0,1,.826-.964Z" transform="translate(255.476 116.523)"/><path class="b" d="M-246.4-131.1a.629.629,0,0,1,.67.583.632.632,0,0,1-.581.677.63.63,0,0,1-.668-.585.629.629,0,0,1,.579-.675Z" transform="translate(264.364 134.529)"/><path class="b" d="M-262.036-98.851a1.894,1.894,0,0,1-1.749,2.019,1.892,1.892,0,0,1-2.006-1.765,1.9,1.9,0,0,1,1.751-2.017,1.887,1.887,0,0,1,2,1.763Z" transform="translate(277.774 112.863)"/><path class="b" d="M-259.971-131.756a.553.553,0,0,1-.511.59.552.552,0,0,1-.587-.515.553.553,0,0,1,.513-.59.551.551,0,0,1,.586.515Z" transform="translate(274.407 135.358)"/><path class="b" d="M-224.214-95.583a.552.552,0,0,1-.511.589.552.552,0,0,1-.587-.515.553.553,0,0,1,.513-.59.55.55,0,0,1,.585.515Z" transform="translate(248.917 109.652)"/><path class="b" d="M-225.706-110.446a.553.553,0,0,1-.511.59.552.552,0,0,1-.588-.515.553.553,0,0,1,.513-.59.55.55,0,0,1,.585.515Z" transform="translate(249.981 120.214)"/><path class="b" d="M-268.664-124.644a.883.883,0,0,1-.811.938.88.88,0,0,1-.931-.82.878.878,0,0,1,.811-.936.876.876,0,0,1,.931.818Z" transform="translate(281.063 130.519)"/><path class="b" d="M-288.179-104.638a.883.883,0,0,1-.811.938.88.88,0,0,1-.931-.82.878.878,0,0,1,.811-.936.876.876,0,0,1,.931.817Z" transform="translate(294.974 116.302)"/><path class="b" d="M-274.409-130.09a.594.594,0,0,1-.548.634.6.6,0,0,1-.629-.555.594.594,0,0,1,.548-.631.591.591,0,0,1,.629.552Z" transform="translate(284.755 134.2)"/><path class="b" d="M-294.2-110.56a.594.594,0,0,1-.548.633.594.594,0,0,1-.629-.555.593.593,0,0,1,.548-.631.591.591,0,0,1,.629.552Z" transform="translate(298.861 120.321)"/><path class="b" d="M-295.788-95.7a.594.594,0,0,1-.548.633.594.594,0,0,1-.629-.554.593.593,0,0,1,.548-.631.591.591,0,0,1,.629.552Z" transform="translate(299.995 109.759)"/><path class="b" d="M-279.412-134.546a.332.332,0,0,1-.3.353.333.333,0,0,1-.353-.309.332.332,0,0,1,.307-.351.328.328,0,0,1,.35.307Z" transform="translate(287.951 137.192)"/><path class="b" d="M-266.155-137.811a.332.332,0,0,1-.3.353.334.334,0,0,1-.352-.309.332.332,0,0,1,.307-.351.328.328,0,0,1,.35.307Z" transform="translate(278.5 139.512)"/><path class="b" d="M-217.434-88.654a.332.332,0,0,1-.3.353.333.333,0,0,1-.353-.309.332.332,0,0,1,.307-.351.328.328,0,0,1,.35.307Z" transform="translate(243.769 104.58)"/><path class="b" d="M-217.343-101.547a.332.332,0,0,1-.3.353A.333.333,0,0,1-218-101.5a.332.332,0,0,1,.307-.351.328.328,0,0,1,.35.307Z" transform="translate(243.704 113.742)"/><path class="b" d="M-220.328-114.819a.332.332,0,0,1-.3.353.333.333,0,0,1-.353-.309.332.332,0,0,1,.307-.351.328.328,0,0,1,.35.307Z" transform="translate(245.832 123.174)"/><path class="b" d="M-299.018-114.819a.332.332,0,0,1-.3.353.333.333,0,0,1-.352-.309.331.331,0,0,1,.307-.351.328.328,0,0,1,.35.307Z" transform="translate(301.927 123.174)"/><path class="b" d="M-302.284-101.736a.332.332,0,0,1-.3.353.333.333,0,0,1-.352-.309.331.331,0,0,1,.307-.351.328.328,0,0,1,.35.307Z" transform="translate(304.254 113.876)"/><path class="b" d="M-302.192-88.654a.332.332,0,0,1-.3.353.333.333,0,0,1-.352-.309.331.331,0,0,1,.307-.351.328.328,0,0,1,.35.307Z" transform="translate(304.19 104.58)"/><path class="b" d="M-253.093-137.72a.332.332,0,0,1-.3.353.333.333,0,0,1-.352-.309.331.331,0,0,1,.307-.351.328.328,0,0,1,.35.307Z" transform="translate(269.189 139.448)"/><path class="b" d="M-240.306-134.728a.331.331,0,0,1-.3.353.333.333,0,0,1-.352-.309.331.331,0,0,1,.307-.351.328.328,0,0,1,.35.307Z" transform="translate(260.073 137.321)"/><path class="b" d="M-251.869-88.066a1.5,1.5,0,0,1-1.39,1.6,1.5,1.5,0,0,1-1.59-1.4,1.5,1.5,0,0,1,1.39-1.6,1.5,1.5,0,0,1,1.59,1.4Z" transform="translate(269.974 104.941)"/><path class="b" d="M-261.126-77.536a1.291,1.291,0,0,1-1.194,1.377,1.29,1.29,0,0,1-1.368-1.2,1.294,1.294,0,0,1,1.2-1.377,1.288,1.288,0,0,1,1.366,1.2Z" transform="translate(276.275 97.317)"/><path class="b" d="M-260.119-59.778a.6.6,0,0,1-.559.644.606.606,0,0,1-.641-.563.607.607,0,0,1,.561-.644.6.6,0,0,1,.64.563Z" transform="translate(274.586 84.242)"/><path class="b" d="M-252.468-68.655a.884.884,0,0,1-.818.942.884.884,0,0,1-.937-.824.887.887,0,0,1,.82-.942.882.882,0,0,1,.935.824Z" transform="translate(269.527 90.736)"/><path class="b" d="M-245.66-61.208a.574.574,0,0,1-.531.611.571.571,0,0,1-.607-.535.576.576,0,0,1,.531-.612.573.573,0,0,1,.607.535Z" transform="translate(264.233 85.238)"/><path class="b" d="M-240.41-55.551a.3.3,0,0,1-.272.314.293.293,0,0,1-.311-.274.3.3,0,0,1,.272-.313.293.293,0,0,1,.311.274Z" transform="translate(260.094 81.032)"/><path class="b" d="M-253.092-52.657a.3.3,0,0,1-.272.314.293.293,0,0,1-.311-.274.3.3,0,0,1,.272-.313.293.293,0,0,1,.311.274Z" transform="translate(269.135 78.975)"/><path class="b" d="M-266.418-52.551a.294.294,0,0,1-.272.314.293.293,0,0,1-.311-.274.3.3,0,0,1,.272-.313.291.291,0,0,1,.311.274Z" transform="translate(278.635 78.9)"/><path class="b" d="M-279.32-55.665a.293.293,0,0,1-.272.313.293.293,0,0,1-.311-.274.3.3,0,0,1,.272-.313.291.291,0,0,1,.311.274Z" transform="translate(287.832 81.113)"/><path class="b" d="M-274.683-61.208a.574.574,0,0,1-.531.611.571.571,0,0,1-.607-.535.576.576,0,0,1,.531-.612.573.573,0,0,1,.607.535Z" transform="translate(284.922 85.238)"/><path class="b" d="M-268.812-68.389a.824.824,0,0,1-.759.877.822.822,0,0,1-.872-.767.821.821,0,0,1,.762-.875.819.819,0,0,1,.87.765Z" transform="translate(281.09 90.505)"/><path class="b" d="M-243.22-79.477a1.227,1.227,0,0,1-1.131,1.307,1.224,1.224,0,0,1-1.3-1.142,1.226,1.226,0,0,1,1.133-1.3,1.22,1.22,0,0,1,1.3,1.14Z" transform="translate(263.415 98.652)"/><path class="b" d="M-236.322-72.245a.928.928,0,0,1-.857.988.926.926,0,0,1-.983-.863.931.931,0,0,1,.859-.989.923.923,0,0,1,.981.864Z" transform="translate(258.078 93.315)"/><path class="b" d="M-230.732-66.286a.558.558,0,0,1-.513.594.556.556,0,0,1-.59-.519.555.555,0,0,1,.513-.592.554.554,0,0,1,.59.517Z" transform="translate(253.567 88.834)"/><path class="b" d="M-226.657-62.005a.223.223,0,0,1-.2.237.224.224,0,0,1-.237-.208.223.223,0,0,1,.206-.235.22.22,0,0,1,.235.206Z" transform="translate(250.189 85.57)"/><path class="b" d="M-220.315-75.231a.224.224,0,0,1-.2.237.224.224,0,0,1-.237-.208.223.223,0,0,1,.207-.234.22.22,0,0,1,.235.206Z" transform="translate(245.669 94.969)"/><path class="b" d="M-225.641-81.015a.553.553,0,0,1-.511.59.551.551,0,0,1-.585-.515.553.553,0,0,1,.511-.59.552.552,0,0,1,.585.515Z" transform="translate(249.933 99.299)"/><path class="b" d="M-232.8-88.235a.814.814,0,0,1-.753.868.814.814,0,0,1-.864-.758.816.816,0,0,1,.755-.868.812.812,0,0,1,.861.758Z" transform="translate(255.405 104.604)"/><path class="b" d="M-241.122-96.716a1.063,1.063,0,0,1-.983,1.133,1.063,1.063,0,0,1-1.127-.991,1.066,1.066,0,0,1,.985-1.133,1.061,1.061,0,0,1,1.125.991Z" transform="translate(261.692 110.796)"/><path class="b" d="M-272.877-109.378a1.5,1.5,0,0,0-1.566,1.427,1.506,1.506,0,0,0,1.418,1.581,1.5,1.5,0,0,0,1.564-1.429,1.5,1.5,0,0,0-1.416-1.578Z" transform="translate(283.941 119.09)"/><path class="b" d="M-280.227-116.522a1.226,1.226,0,0,0-1.277,1.164,1.228,1.228,0,0,0,1.155,1.287,1.226,1.226,0,0,0,1.277-1.164,1.227,1.227,0,0,0-1.155-1.287Z" transform="translate(288.973 124.166)"/><path class="b" d="M-286.221-122.3a.946.946,0,0,0-.985.9.947.947,0,0,0,.892,1,.947.947,0,0,0,.985-.9.945.945,0,0,0-.892-.993Z" transform="translate(293.039 128.272)"/><path class="b" d="M-290.317-126.043a.555.555,0,0,0-.579.528.557.557,0,0,0,.524.585.557.557,0,0,0,.579-.53.556.556,0,0,0-.524-.583Z" transform="translate(295.668 130.931)"/><path class="b" d="M-292.792-128.2a.223.223,0,0,0-.231.211.222.222,0,0,0,.209.234.223.223,0,0,0,.231-.212.221.221,0,0,0-.209-.233Z" transform="translate(297.184 132.464)"/><path class="b" d="M-281.978-96.146a1.271,1.271,0,0,1-1.355-1.181,1.276,1.276,0,0,1,1.172-1.366,1.275,1.275,0,0,1,1.355,1.182,1.276,1.276,0,0,1-1.173,1.366Z" transform="translate(290.279 111.498)"/><path class="b" d="M-289.423-87.474a.9.9,0,0,1-.961-.837.906.906,0,0,1,.833-.971.9.9,0,0,1,.959.84.9.9,0,0,1-.831.969Z" transform="translate(295.305 104.809)"/><path class="b" d="M-295.069-80.475a.629.629,0,0,1-.67-.583.631.631,0,0,1,.581-.677.63.63,0,0,1,.668.585.629.629,0,0,1-.579.675Z" transform="translate(299.122 99.445)"/><path class="b" d="M-299.365-75.143a.284.284,0,0,1-.3-.263.286.286,0,0,1,.263-.3.284.284,0,0,1,.3.263.284.284,0,0,1-.261.3Z" transform="translate(301.922 95.164)"/></g><g transform="translate(47.035 81.411)"><path class="c" d="M-366.124-26.687l-4.671-9.04h-5.056v14.15h4.177v-9.287l5.028,9.287H-362v-14.15h-4.067l-.055,9.04Z" transform="translate(375.851 36.272)"/><path class="c" d="M-167.023-26.687l-4.671-9.04h-5.056v14.15h4.177v-9.287l5.028,9.287h4.644v-14.15h-4.067l-.055,9.04Z" transform="translate(257.083 36.272)"/><path class="c" d="M-323.194-35.763h-11.788v14.177h11.9v-2.8h-7.529v-2.8h7.007v-2.885h-7.007v-2.995h7.419v-2.693Z" transform="translate(351.472 36.294)"/><path class="c" d="M-300.281-21.566h4.589l1.841-9.726,2.171,9.726h4.4l3.242-14.178h-4.039l-1.676,10.386-2.253-10.386h-3.627L-297.7-25.358l-1.7-10.386h-4.259l3.38,14.178Z" transform="translate(332.788 36.283)"/><path class="c" d="M-244.575-27.62h2.35c-.17,2.94-1.727,2.94-2.492,3.1-2.208,0-3.341-1.016-3.341-4.836,0-3.654.51-5.11,2.831-5.11a2.832,2.832,0,0,1,2.633,2.335h4.473c-.113-2.115-1.472-5.083-6.823-4.945-5.52-.192-7.672,3.407-7.672,7.666.056,5.578,3.426,7.418,7.191,7.418,3.34,0,3.709-.714,4.869-1.786l.311,1.4h2.18v-7.638h-6.511v2.39Z" transform="translate(302.339 37.079)"/><path class="c" d="M-199.215-35.763H-211v14.177h11.9v-2.8h-7.529v-2.8h7.007v-2.885h-7.007v-2.995h7.419v-2.693Z" transform="translate(277.516 36.294)"/></g></g></svg>